<svg width="293" height="90" viewBox="0 0 293 90" fill="none" xmlns="http://www.w3.org/2000/svg">
<path d="M65.8206 7.00283V13.4962H59.7498V7.44469C59.7498 6.23438 59.1543 5.63883 57.9824 5.61962C56.8873 5.61962 56.2533 6.31122 56.2533 7.23336V13.0736C56.2533 14.3223 56.6952 14.8986 57.9055 15.4174L60.9025 16.4163C62.6892 17.0119 64.0148 17.8188 64.8793 18.8177C65.7438 19.8359 66.1665 21.3344 66.1665 23.3324V30.9208C66.1665 33.2262 65.4556 35.0512 64.0532 36.3768C62.6315 37.7216 60.672 38.394 58.1937 38.394C53.1026 38.394 50.2401 35.9542 50.2401 31.7469V24.0432H56.3302V31.3627C56.3302 32.4577 56.9834 33.2838 58.1553 33.2838C59.2503 33.2838 59.9227 32.5346 59.9227 31.4779V24.3506C59.9227 23.1403 59.2695 22.2758 57.9824 21.7186L55.2351 20.8541C53.4292 20.297 52.1228 19.4901 51.316 18.4143C50.4899 17.3385 50.0864 15.8016 50.0864 13.8036V7.55995C50.0864 5.48514 50.778 3.79455 52.1421 2.48819C53.5061 1.20103 55.4656 0.547852 58.0592 0.547852C60.5567 0.547852 62.4778 1.12419 63.8227 2.27686C65.1482 3.42954 65.8206 5.00486 65.8206 7.00283Z" fill="white"/>
<path d="M85.3203 38.0482H78.9037L78.2889 30.0947L73.9471 30.0563L73.3323 38.0482H66.9925L71.392 0.874443H80.9977L85.3203 38.0482ZM75.4072 12.0746L74.389 25.023H77.8855L76.9057 12.0746L76.3486 6.58018H75.9259L75.4072 12.0746Z" fill="white"/>
<path d="M96.0788 0.874443H102.207V31.4395C102.207 35.9926 99.3831 38.394 94.3497 38.394C89.3163 38.394 86.5883 36.031 86.5883 31.5164V0.874443H92.7168V31.2474C92.7168 32.573 93.2739 33.2454 94.3689 33.2454C95.5024 33.2454 96.0596 32.573 96.0788 31.2474V0.874443Z" fill="white"/>
<path d="M105.569 0.874443H113.83C118.537 0.874443 121.342 3.52559 121.342 8.73184V30.2484C121.342 32.8035 120.669 34.7246 119.344 36.0502C117.999 37.3758 116.155 38.0482 113.83 38.0482H105.569V0.874443ZM115.137 30.6519V8.27077C115.137 6.90677 114.426 6.0999 113.331 6.0999H111.717V32.8227H113.273C114.426 32.8227 115.137 32.0159 115.137 30.6519Z" fill="white"/>
<path d="M124.473 38.0482V0.874443H130.621V38.0482H124.473Z" fill="white"/>
<path d="M155.615 7.00283V13.4962H149.544V7.44469C149.544 6.23438 148.949 5.63883 147.777 5.61962C146.682 5.61962 146.048 6.31122 146.048 7.23336V13.0736C146.048 14.3223 146.49 14.8986 147.7 15.4174L150.697 16.4163C152.484 17.0119 153.809 17.8188 154.674 18.8177C155.538 19.8359 155.961 21.3344 155.961 23.3324V30.9208C155.961 33.2262 155.25 35.0512 153.848 36.3768C152.426 37.7216 150.467 38.394 147.988 38.394C142.897 38.394 140.035 35.9542 140.035 31.7469V24.0432H146.125V31.3627C146.125 32.4577 146.778 33.2838 147.95 33.2838C149.045 33.2838 149.717 32.5346 149.717 31.4779V24.3506C149.717 23.1403 149.064 22.2758 147.777 21.7186L145.03 20.8541C143.224 20.297 141.917 19.4901 141.111 18.4143C140.284 17.3385 139.881 15.8016 139.881 13.8036V7.55995C139.881 5.48514 140.573 3.79455 141.937 2.48819C143.301 1.20103 145.26 0.547852 147.854 0.547852C150.351 0.547852 152.272 1.12419 153.617 2.27686C154.943 3.42954 155.615 5.00486 155.615 7.00283Z" fill="white"/>
<path d="M167.238 26.8673H164.971V38.0482H158.824V0.874443H167.2C169.563 0.874443 171.407 1.52762 172.752 2.8532C174.097 4.17878 174.769 6.06148 174.769 8.5013V18.933C174.769 21.3344 174.077 23.2555 172.675 24.6964C171.273 26.1372 169.467 26.8673 167.238 26.8673ZM164.971 21.6418H166.335C167.757 21.6418 168.468 20.7581 168.468 19.0099V8.65499C168.468 6.94519 167.757 6.0999 166.335 6.0999H164.971V21.6418Z" fill="white"/>
<path d="M183.376 21.4881V32.8227H189.908V38.0482H177.228V0.874443H189.812V6.0999H183.376V16.4163H189.351V21.4881H183.376Z" fill="white"/>
<path d="M202.088 20.7389H208.139V30.9208C208.139 35.8581 205.392 38.394 200.301 38.394C195.095 38.394 192.29 35.4739 192.29 29.8642V9.05843C192.29 3.50638 195.133 0.547852 200.301 0.547852C205.527 0.547852 208.139 3.04531 208.139 8.02102V17.0695H202.088V7.82891C202.088 6.52255 201.377 5.65804 200.359 5.65804C199.264 5.65804 198.534 6.52255 198.534 7.82891V31.0937C198.534 32.4001 199.264 33.2454 200.359 33.2454C201.415 33.2454 202.088 32.4001 202.088 31.0937V20.7389Z" fill="white"/>
<path d="M211.117 38.0482V0.874443H217.265V38.0482H211.117Z" fill="white"/>
<path d="M237.206 38.0482H230.79L230.175 30.0947L225.833 30.0563L225.218 38.0482H218.879L223.278 0.874443H232.884L237.206 38.0482ZM227.293 12.0746L226.275 25.023H229.772L228.792 12.0746L228.235 6.58018H227.812L227.293 12.0746Z" fill="white"/>
<path d="M244.968 0.874443V32.8227H250.866V38.0482H238.82V0.874443H244.968Z" fill="white"/>
<path d="M252.46 38.0482V0.874443H258.608V38.0482H252.46Z" fill="white"/>
<path d="M275.207 5.7541L268.06 32.8227H275.687V38.0482H261.048V33.207L268.329 6.0999H261.163V0.874443H275.245L275.207 5.7541Z" fill="white"/>
<path d="M284.275 21.4881V32.8227H290.807V38.0482H278.127V0.874443H290.711V6.0999H284.275V16.4163H290.249V21.4881H284.275Z" fill="white"/>
<path d="M50.1337 72.853V41.3983H55.3356V72.853H50.1337Z" fill="white"/>
<path d="M66.8935 58.4668H67.1536L66.8285 50.0138V41.3983H71.7215V72.853H66.6822L63.0246 54.4354H62.732L63.0571 62.6933V72.853H58.1641V41.3983H63.4961L66.8935 58.4668Z" fill="white"/>
<path d="M74.5826 41.3983H81.5726C85.5553 41.3983 87.9287 43.6416 87.9287 48.0469V66.2532C87.9287 68.4153 87.3597 70.0408 86.238 71.1625C85.1001 72.2841 83.5396 72.853 81.5726 72.853H74.5826V41.3983ZM82.678 66.5946V47.6568C82.678 46.5026 82.0765 45.8199 81.1499 45.8199H79.7845V68.4315H81.1012C82.0765 68.4315 82.678 67.7488 82.678 66.5946Z" fill="white"/>
<path d="M98.5437 41.3983H103.729V67.2611C103.729 71.1137 101.34 73.1456 97.0807 73.1456C92.8217 73.1456 90.5133 71.1462 90.5133 67.3261V41.3983H95.699V67.0985C95.699 68.2202 96.1704 68.7891 97.097 68.7891C98.0561 68.7891 98.5275 68.2202 98.5437 67.0985V41.3983Z" fill="white"/>
<path d="M119.628 46.5839V52.0783H114.491V46.9578C114.491 45.9337 113.987 45.4297 112.995 45.4135C112.069 45.4135 111.532 45.9987 111.532 46.779V51.7207C111.532 52.7773 111.906 53.265 112.93 53.7039L115.466 54.5492C116.978 55.0531 118.1 55.7358 118.831 56.5811C119.563 57.4427 119.92 58.7106 119.92 60.4012V66.8222C119.92 68.7729 119.319 70.3172 118.132 71.4388C116.929 72.5767 115.271 73.1456 113.174 73.1456C108.866 73.1456 106.444 71.0812 106.444 67.5212V61.0027H111.597V67.1961C111.597 68.1226 112.15 68.8216 113.142 68.8216C114.068 68.8216 114.637 68.1877 114.637 67.2936V61.2628C114.637 60.2387 114.084 59.5071 112.995 59.0357L110.671 58.3042C109.143 57.8328 108.037 57.1501 107.354 56.2398C106.655 55.3294 106.314 54.029 106.314 52.3384V47.0553C106.314 45.2997 106.899 43.8692 108.053 42.7638C109.208 41.6747 110.866 41.122 113.06 41.122C115.174 41.122 116.799 41.6097 117.937 42.585C119.059 43.5603 119.628 44.8933 119.628 46.5839Z" fill="white"/>
<path d="M120.749 41.3983H133.835V45.8199H129.869V72.853H124.716V45.8199H120.749V41.3983Z" fill="white"/>
<path d="M144.499 72.853C144.499 72.853 143.556 71.9752 143.556 68.6266V61.4578C143.556 60.0111 143.085 59.5884 141.833 59.5884H140.549V72.853H135.347V41.3983H142.435C146.791 41.3983 148.726 43.7879 148.726 47.8518V52.5497C148.726 54.5329 147.994 55.7683 146.856 56.5324C148.189 57.2639 148.839 58.6619 148.839 61.3278V68.6266C148.839 71.9752 149.782 72.853 149.782 72.853H144.499ZM140.581 55.427H141.573C142.776 55.427 143.443 54.6792 143.443 53.1999V47.9819C143.443 46.5351 142.776 45.8199 141.573 45.8199H140.581V55.427Z" fill="white"/>
<path d="M151.343 72.853V41.3983H156.545V72.853H151.343Z" fill="white"/>
<path d="M173.418 72.853H167.989L167.469 66.1232L163.795 66.0907L163.275 72.853H157.91L161.633 41.3983H169.761L173.418 72.853ZM165.03 50.8754L164.169 61.8317H167.127L166.298 50.8754L165.827 46.2263H165.469L165.03 50.8754Z" fill="white"/>
<path d="M179.986 41.3983V68.4315H184.976V72.853H174.784V41.3983H179.986Z" fill="white"/>
<path d="M201.98 41.3983V45.8199H196.794V54.5492H201.574V58.8732H196.794V72.853H191.592V41.3983H201.98Z" fill="white"/>
<path d="M217.082 72.853H211.652L211.132 66.1232L207.458 66.0907L206.938 72.853H201.574L205.296 41.3983H213.424L217.082 72.853ZM208.694 50.8754L207.832 61.8317H210.791L209.962 50.8754L209.49 46.2263H209.133L208.694 50.8754Z" fill="white"/>
<path d="M226.217 58.2067H231.338V66.8222C231.338 70.9999 229.013 73.1456 224.706 73.1456C220.3 73.1456 217.927 70.6748 217.927 65.9281V48.3232C217.927 43.6254 220.333 41.122 224.706 41.122C229.127 41.122 231.338 43.2352 231.338 47.4454V55.1019H226.217V47.2829C226.217 46.1775 225.616 45.446 224.754 45.446C223.828 45.446 223.21 46.1775 223.21 47.2829V66.9685C223.21 68.0739 223.828 68.7891 224.754 68.7891C225.649 68.7891 226.217 68.0739 226.217 66.9685V58.2067Z" fill="white"/>
<path d="M232.427 41.3983H245.513V45.8199H241.547V72.853H236.394V45.8199H232.427V41.3983Z" fill="white"/>
<path d="M253.349 41.122C257.835 41.122 260.209 43.6254 260.209 48.3232V65.9281C260.209 70.6748 257.835 73.1456 253.349 73.1456C248.943 73.1456 246.57 70.6748 246.57 65.9281V48.3232C246.57 43.6254 248.943 41.122 253.349 41.122ZM254.925 66.9685V47.2829C254.925 46.1775 254.324 45.446 253.397 45.446C252.471 45.446 251.853 46.1775 251.853 47.2829V66.9685C251.853 68.0739 252.471 68.7891 253.397 68.7891C254.324 68.7891 254.925 68.0739 254.925 66.9685Z" fill="white"/>
<path d="M271.978 72.853C271.978 72.853 271.035 71.9752 271.035 68.6266V61.4578C271.035 60.0111 270.564 59.5884 269.312 59.5884H268.028V72.853H262.826V41.3983H269.913C274.27 41.3983 276.204 43.7879 276.204 47.8518V52.5497C276.204 54.5329 275.473 55.7683 274.335 56.5324C275.668 57.2639 276.318 58.6619 276.318 61.3278V68.6266C276.318 71.9752 277.261 72.853 277.261 72.853H271.978ZM268.06 55.427H269.052C270.255 55.427 270.921 54.6792 270.921 53.1999V47.9819C270.921 46.5351 270.255 45.8199 269.052 45.8199H268.06V55.427Z" fill="white"/>
<path d="M284.397 55.3457H284.771L285.308 51.3143L286.706 41.3983H292.33L287.096 64.4326V72.853H281.91V64.4001L276.643 41.3983H282.398L283.861 51.3143L284.397 55.3457Z" fill="white"/>
<path d="M50.5049 82.2098V89.7629H49.5188V82.2098H50.5049Z" fill="#CC312B"/>
<path d="M60.9417 89.7629H59.9555L55.9893 83.7486V89.7629H55.0032V82.199H55.9893L59.9555 88.2024V82.199H60.9417V89.7629Z" fill="#CC312B"/>
<path d="M71.3787 89.7629H70.3926L66.4264 83.7486V89.7629H65.4402V82.199H66.4264L70.3926 88.2024V82.199H71.3787V89.7629Z" fill="#CC312B"/>
<path d="M79.3017 89.8387C78.6009 89.8387 77.9616 89.6762 77.3836 89.3511C76.8056 89.0188 76.3469 88.56 76.0073 87.9749C75.675 87.3825 75.5089 86.7178 75.5089 85.9809C75.5089 85.2441 75.675 84.583 76.0073 83.9979C76.3469 83.4055 76.8056 82.9467 77.3836 82.6216C77.9616 82.2893 78.6009 82.1231 79.3017 82.1231C80.0097 82.1231 80.6527 82.2893 81.2306 82.6216C81.8086 82.9467 82.2637 83.4019 82.596 83.987C82.9284 84.5722 83.0945 85.2368 83.0945 85.9809C83.0945 86.725 82.9284 87.3897 82.596 87.9749C82.2637 88.56 81.8086 89.0188 81.2306 89.3511C80.6527 89.6762 80.0097 89.8387 79.3017 89.8387ZM79.3017 88.9827C79.8291 88.9827 80.3023 88.8598 80.7213 88.6142C81.1475 88.3686 81.4799 88.0182 81.7183 87.5631C81.9639 87.1079 82.0867 86.5806 82.0867 85.9809C82.0867 85.3741 81.9639 84.8467 81.7183 84.3988C81.4799 83.9437 81.1511 83.5933 80.7321 83.3477C80.3131 83.102 79.8363 82.9792 79.3017 82.9792C78.7671 82.9792 78.2903 83.102 77.8712 83.3477C77.4522 83.5933 77.1199 83.9437 76.8743 84.3988C76.6359 84.8467 76.5167 85.3741 76.5167 85.9809C76.5167 86.5806 76.6359 87.1079 76.8743 87.5631C77.1199 88.0182 77.4522 88.3686 77.8712 88.6142C78.2975 88.8598 78.7743 88.9827 79.3017 88.9827Z" fill="#CC312B"/>
<path d="M93.4558 82.2098L90.6058 89.7629H89.4679L86.6179 82.2098H87.669L90.0423 88.7226L92.4155 82.2098H93.4558Z" fill="#CC312B"/>
<path d="M101.819 88.0832H98.525L97.9181 89.7629H96.8778L99.6087 82.2532H100.747L103.467 89.7629H102.426L101.819 88.0832ZM101.538 87.2813L100.172 83.4669L98.8068 87.2813H101.538Z" fill="#CC312B"/>
<path d="M112.123 82.2098V83.0117H110.064V89.7629H109.078V83.0117H107.008V82.2098H112.123Z" fill="#CC312B"/>
<path d="M117.141 83.0117V85.5366H119.893V86.3494H117.141V88.9501H120.218V89.7629H116.155V82.199H120.218V83.0117H117.141Z" fill="#CC312B"/>
<path d="M139.728 82.2098L137.539 89.7629H136.433L134.678 83.6836L132.857 89.7629L131.763 89.7737L129.649 82.2098H130.701L132.348 88.6142L134.168 82.2098H135.274L137.008 88.5925L138.666 82.2098H139.728Z" fill="#CC312B"/>
<path d="M144.61 82.2098V89.7629H143.624V82.2098H144.61Z" fill="#CC312B"/>
<path d="M153.758 82.2098V83.0117H151.699V89.7629H150.712V83.0117H148.643V82.2098H153.758Z" fill="#CC312B"/>
<path d="M163.608 82.2098V89.7629H162.622V86.3385H158.775V89.7629H157.789V82.2098H158.775V85.5258H162.622V82.2098H163.608Z" fill="#CC312B"/>
<path d="M173.448 85.9809C173.448 85.2441 173.614 84.583 173.946 83.9979C174.279 83.4055 174.73 82.9431 175.301 82.6108C175.879 82.2785 176.518 82.1123 177.219 82.1123C178.043 82.1123 178.761 82.311 179.375 82.7083C179.99 83.1057 180.437 83.6692 180.719 84.3988H179.538C179.328 83.9437 179.025 83.5933 178.628 83.3477C178.238 83.102 177.768 82.9792 177.219 82.9792C176.692 82.9792 176.218 83.102 175.799 83.3477C175.38 83.5933 175.052 83.9437 174.813 84.3988C174.575 84.8467 174.456 85.3741 174.456 85.9809C174.456 86.5806 174.575 87.1079 174.813 87.5631C175.052 88.011 175.38 88.3578 175.799 88.6034C176.218 88.849 176.692 88.9718 177.219 88.9718C177.768 88.9718 178.238 88.8526 178.628 88.6142C179.025 88.3686 179.328 88.0182 179.538 87.5631H180.719C180.437 88.2855 179.99 88.8454 179.375 89.2427C178.761 89.6328 178.043 89.8279 177.219 89.8279C176.518 89.8279 175.879 89.6654 175.301 89.3403C174.73 89.0079 174.279 88.5492 173.946 87.964C173.614 87.3789 173.448 86.7178 173.448 85.9809Z" fill="#CC312B"/>
<path d="M190.943 89.7629H189.957L185.991 83.7486V89.7629H185.005V82.199H185.991L189.957 88.2024V82.199H190.943V89.7629Z" fill="#CC312B"/>
<path d="M195.073 85.9809C195.073 85.2441 195.239 84.583 195.572 83.9979C195.904 83.4055 196.356 82.9431 196.926 82.6108C197.504 82.2785 198.144 82.1123 198.844 82.1123C199.668 82.1123 200.387 82.311 201.001 82.7083C201.615 83.1057 202.063 83.6692 202.345 84.3988H201.163C200.954 83.9437 200.651 83.5933 200.253 83.3477C199.863 83.102 199.394 82.9792 198.844 82.9792C198.317 82.9792 197.844 83.102 197.425 83.3477C197.006 83.5933 196.677 83.9437 196.439 84.3988C196.2 84.8467 196.081 85.3741 196.081 85.9809C196.081 86.5806 196.2 87.1079 196.439 87.5631C196.677 88.011 197.006 88.3578 197.425 88.6034C197.844 88.849 198.317 88.9718 198.844 88.9718C199.394 88.9718 199.863 88.8526 200.253 88.6142C200.651 88.3686 200.954 88.0182 201.163 87.5631H202.345C202.063 88.2855 201.615 88.8454 201.001 89.2427C200.387 89.6328 199.668 89.8279 198.844 89.8279C198.144 89.8279 197.504 89.6654 196.926 89.3403C196.356 89.0079 195.904 88.5492 195.572 87.964C195.239 87.3789 195.073 86.7178 195.073 85.9809Z" fill="#CC312B"/>
<path d="M217.387 84.4205C217.387 85.049 217.17 85.5728 216.736 85.9918C216.31 86.4036 215.656 86.6095 214.775 86.6095H213.323V89.7629H212.337V82.2098H214.775C215.627 82.2098 216.274 82.4157 216.715 82.8275C217.163 83.2393 217.387 83.7703 217.387 84.4205ZM214.775 85.7967C215.324 85.7967 215.729 85.6775 215.989 85.4391C216.249 85.2007 216.379 84.8612 216.379 84.4205C216.379 83.4885 215.844 83.0226 214.775 83.0226H213.323V85.7967H214.775Z" fill="#CC312B"/>
<path d="M225.407 89.7629L223.608 86.6745H222.416V89.7629H221.43V82.2098H223.868C224.439 82.2098 224.919 82.3074 225.309 82.5024C225.707 82.6975 226.003 82.9612 226.198 83.2935C226.393 83.6258 226.491 84.0051 226.491 84.4313C226.491 84.9515 226.339 85.4102 226.035 85.8076C225.739 86.2049 225.291 86.4686 224.692 86.5986L226.588 89.7629H225.407ZM222.416 85.8834H223.868C224.403 85.8834 224.804 85.7534 225.071 85.4933C225.338 85.226 225.472 84.872 225.472 84.4313C225.472 83.9834 225.338 83.6366 225.071 83.391C224.811 83.1454 224.41 83.0226 223.868 83.0226H222.416V85.8834Z" fill="#CC312B"/>
<path d="M231.827 83.0117V85.5366H234.579V86.3494H231.827V88.9501H234.904V89.7629H230.84V82.199H234.904V83.0117H231.827Z" fill="#CC312B"/>
<path d="M238.845 85.9809C238.845 85.2441 239.012 84.583 239.344 83.9979C239.676 83.4055 240.128 82.9431 240.698 82.6108C241.276 82.2785 241.916 82.1123 242.617 82.1123C243.44 82.1123 244.159 82.311 244.773 82.7083C245.387 83.1057 245.835 83.6692 246.117 84.3988H244.936C244.726 83.9437 244.423 83.5933 244.025 83.3477C243.635 83.102 243.166 82.9792 242.617 82.9792C242.089 82.9792 241.616 83.102 241.197 83.3477C240.778 83.5933 240.449 83.9437 240.211 84.3988C239.972 84.8467 239.853 85.3741 239.853 85.9809C239.853 86.5806 239.972 87.1079 240.211 87.5631C240.449 88.011 240.778 88.3578 241.197 88.6034C241.616 88.849 242.089 88.9718 242.617 88.9718C243.166 88.9718 243.635 88.8526 244.025 88.6142C244.423 88.3686 244.726 88.0182 244.936 87.5631H246.117C245.835 88.2855 245.387 88.8454 244.773 89.2427C244.159 89.6328 243.44 89.8279 242.617 89.8279C241.916 89.8279 241.276 89.6654 240.698 89.3403C240.128 89.0079 239.676 88.5492 239.344 87.964C239.012 87.3789 238.845 86.7178 238.845 85.9809Z" fill="#CC312B"/>
<path d="M251.388 82.2098V89.7629H250.402V82.2098H251.388Z" fill="#CC312B"/>
<path d="M258.282 89.8387C257.783 89.8387 257.335 89.7521 256.938 89.5787C256.548 89.3981 256.241 89.1524 256.017 88.8418C255.793 88.5239 255.677 88.1591 255.67 87.7473H256.721C256.757 88.1013 256.902 88.4011 257.155 88.6467C257.415 88.8851 257.79 89.0043 258.282 89.0043C258.751 89.0043 259.12 88.8887 259.387 88.6576C259.661 88.4192 259.799 88.1157 259.799 87.7473C259.799 87.4583 259.719 87.2235 259.56 87.0429C259.401 86.8623 259.203 86.725 258.964 86.6311C258.726 86.5372 258.404 86.4361 258 86.3277C257.501 86.1977 257.1 86.0676 256.797 85.9376C256.501 85.8076 256.244 85.6053 256.028 85.3308C255.818 85.049 255.713 84.6733 255.713 84.2038C255.713 83.792 255.818 83.4271 256.028 83.1093C256.237 82.7914 256.53 82.5458 256.905 82.3724C257.288 82.199 257.725 82.1123 258.217 82.1123C258.925 82.1123 259.502 82.2893 259.95 82.6433C260.406 82.9973 260.662 83.4669 260.72 84.052H259.636C259.6 83.7631 259.448 83.5102 259.181 83.2935C258.914 83.0695 258.56 82.9576 258.119 82.9576C257.707 82.9576 257.371 83.0659 257.111 83.2826C256.851 83.4922 256.721 83.7884 256.721 84.1712C256.721 84.4458 256.797 84.6697 256.949 84.8431C257.108 85.0165 257.299 85.1501 257.523 85.2441C257.754 85.3308 258.076 85.4319 258.487 85.5475C258.986 85.6847 259.387 85.822 259.69 85.9593C259.994 86.0893 260.254 86.2952 260.471 86.577C260.687 86.8515 260.796 87.2271 260.796 87.7039C260.796 88.0724 260.698 88.4192 260.503 88.7443C260.308 89.0693 260.019 89.333 259.636 89.5353C259.253 89.7376 258.802 89.8387 258.282 89.8387Z" fill="#CC312B"/>
<path d="M266.051 82.2098V89.7629H265.064V82.2098H266.051Z" fill="#CC312B"/>
<path d="M273.973 89.8387C273.272 89.8387 272.633 89.6762 272.055 89.3511C271.477 89.0188 271.018 88.56 270.679 87.9749C270.346 87.3825 270.18 86.7178 270.18 85.9809C270.18 85.2441 270.346 84.583 270.679 83.9979C271.018 83.4055 271.477 82.9467 272.055 82.6216C272.633 82.2893 273.272 82.1231 273.973 82.1231C274.681 82.1231 275.324 82.2893 275.902 82.6216C276.48 82.9467 276.935 83.4019 277.267 83.987C277.6 84.5722 277.766 85.2368 277.766 85.9809C277.766 86.725 277.6 87.3897 277.267 87.9749C276.935 88.56 276.48 89.0188 275.902 89.3511C275.324 89.6762 274.681 89.8387 273.973 89.8387ZM273.973 88.9827C274.5 88.9827 274.974 88.8598 275.393 88.6142C275.819 88.3686 276.151 88.0182 276.39 87.5631C276.635 87.1079 276.758 86.5806 276.758 85.9809C276.758 85.3741 276.635 84.8467 276.39 84.3988C276.151 83.9437 275.823 83.5933 275.404 83.3477C274.985 83.102 274.508 82.9792 273.973 82.9792C273.439 82.9792 272.962 83.102 272.543 83.3477C272.124 83.5933 271.791 83.9437 271.546 84.3988C271.307 84.8467 271.188 85.3741 271.188 85.9809C271.188 86.5806 271.307 87.1079 271.546 87.5631C271.791 88.0182 272.124 88.3686 272.543 88.6142C272.969 88.8598 273.446 88.9827 273.973 88.9827Z" fill="#CC312B"/>
<path d="M287.824 89.7629H286.838L282.871 83.7486V89.7629H281.885V82.199H282.871L286.838 88.2024V82.199H287.824V89.7629Z" fill="#CC312B"/>
<g clip-path="url(#clip0_174_121)">
<path d="M29.8051 51.5808C32.7526 52.1721 32.5326 51.7943 32.5326 54.0776C32.5326 57.1494 32.5326 60.2047 32.4886 63.2765C32.4666 65.4448 31.1249 66.8411 28.3533 67.4982C27.6934 67.6624 27.5174 67.8924 27.5174 68.3688C27.5394 69.7651 27.5394 71.1613 27.5394 72.5576C27.5174 74.4631 26.3076 75.7772 23.954 76.4671C23.3601 76.6314 23.2062 76.8778 23.2062 77.3213C23.2282 78.504 23.1182 79.6867 23.2062 80.853C23.3601 82.9392 22.8322 84.9268 21.9524 86.8816C21.7324 87.3416 21.5784 87.8179 21.2925 88.5243C20.9625 87.7358 20.7646 87.1609 20.5006 86.5859C19.5548 84.5983 19.2688 82.545 19.3788 80.4424C19.4448 79.3746 19.4228 78.3069 19.3788 77.2392C19.3788 77.0092 19.1368 76.6478 18.8729 76.5821C16.0573 75.7608 14.9135 74.2003 15.0015 72.0155C15.0675 70.57 15.0235 69.1244 15.0235 67.6953C11.2401 66.759 10.0963 65.6091 10.0743 62.6852C10.0523 59.597 10.0303 56.4923 10.0523 53.4041C10.0523 52.0571 10.0743 52.0571 11.834 51.7286C12.01 51.6957 12.164 51.6465 12.5379 51.5479C12.164 51.4658 11.988 51.4001 11.812 51.3836C8.9965 51.1372 6.84085 50.1516 5.56506 48.2297C5.25711 47.7698 4.88317 47.5398 4.20128 47.4412C1.56172 47.0306 0.0879618 45.6836 0.0879618 43.6631C0.043969 39.1786 0.0879618 34.6777 0.0219727 30.1933C0.0219727 29.6019 0.351918 29.3062 1.01181 29.1912C3.27744 28.7806 5.54306 28.2549 7.85268 28.0414C17.3111 27.2529 26.8356 27.22 36.316 28.2385C38.0757 28.4356 39.7914 28.8627 41.5291 29.2077C42.233 29.3555 42.519 29.6676 42.519 30.2918C42.475 34.7599 42.519 39.2115 42.475 43.6795C42.453 45.7986 41.0012 47.0634 38.2297 47.5727C37.8557 47.6384 37.3498 47.8191 37.2178 48.049C35.8541 50.2009 33.5005 51.2029 30.465 51.4986C30.333 51.5151 30.201 51.5315 29.8051 51.5808ZM4.0913 31.5895C4.04731 31.6881 3.95932 31.8195 3.95932 31.9509C3.95932 36.074 3.93733 40.2135 3.95932 44.3366C3.95932 45.0594 4.48724 45.7164 5.45508 45.8971C6.35693 46.0614 6.66488 46.4885 6.95083 47.047C7.89668 48.9525 9.76637 49.9052 12.4719 49.9709C13.5278 49.9874 14.5836 50.0202 15.6614 50.0202C15.8814 50.0202 16.0793 49.9545 16.4973 49.8888C12.098 48.8539 10.5582 47.5727 9.96434 44.5994C9.70038 43.2525 9.70038 43.2525 7.89668 43.1046C7.83069 43.1046 7.7867 43.0389 7.58873 42.9075C7.58873 40.0985 7.58873 37.2074 7.58873 34.3164C7.58873 31.8852 7.58873 31.8852 4.37726 31.5403C4.28927 31.5403 4.22328 31.5731 4.0913 31.5895ZM12.142 53.9298C12.098 54.1433 12.032 54.324 12.032 54.5047C12.01 57.3137 11.988 60.139 11.988 62.948C11.988 63.4572 12.098 63.9829 12.296 64.4757C12.6919 65.4613 13.8357 66.0691 15.3315 66.1348C13.7917 65.1656 13.8577 63.9172 13.9457 62.6687C14.0117 61.3875 14.1656 60.1062 14.2096 58.8249C14.2536 57.2151 14.2316 55.6217 14.2316 53.9626C13.8137 53.9462 13.2638 53.9133 12.7139 53.9133C12.5379 53.8805 12.3619 53.9133 12.142 53.9298ZM19.8187 75.1858C18.4109 72.2948 19.5768 69.2723 18.9829 66.3812C18.301 66.3812 17.7071 66.3812 17.0912 66.3812C17.0912 68.7137 17.0032 71.0135 17.1352 73.2968C17.1792 74.3317 18.4329 75.0544 19.8187 75.1858ZM20.8745 86.7338C20.9625 86.7173 21.0505 86.7009 21.1165 86.6845C21.1165 83.6784 21.1385 80.6723 21.0945 77.6663C21.0945 77.4363 20.7206 77.2063 20.5226 76.9763C20.3466 77.2063 20.0387 77.4199 20.0387 77.6498C19.9947 79.4896 19.9067 81.3294 20.0607 83.1528C20.1267 84.3683 20.5886 85.5511 20.8745 86.7338ZM19.2248 51.1537C19.9067 51.2687 20.2806 51.088 20.2806 50.4966C20.2806 49.8724 19.7747 49.8888 19.2028 49.8724C18.5869 49.856 18.169 49.9545 18.169 50.5295C18.191 51.1044 18.4989 51.2851 19.2248 51.1537Z" fill="white"/>
<path d="M24.7898 87.2352C26.7255 86.036 28.6392 84.8205 30.5968 83.6377C30.7288 83.5556 31.0808 83.6542 31.3227 83.6706C31.2347 83.8513 31.2347 84.1141 31.0808 84.1963C29.0571 85.264 27.0114 86.3153 24.9658 87.383C24.8998 87.3337 24.8338 87.2845 24.7898 87.2352Z" fill="#CC312B"/>
<path d="M11.394 83.3086C13.4837 84.5899 15.3974 85.7562 17.3111 86.9225C15.1994 86.4625 11.3061 84.1464 11.394 83.3086Z" fill="#CC312B"/>
<path d="M15.5073 88.1219C13.1757 87.6784 10.8661 87.2513 8.55648 86.7749C8.33651 86.7256 8.20454 86.4628 8.02856 86.2985C8.27052 86.2493 8.55648 86.1178 8.77644 86.1671C11.0421 86.7421 13.3077 87.3663 15.5733 87.9576C15.5293 88.0069 15.5293 88.0562 15.5073 88.1219Z" fill="#CC312B"/>
<path d="M27.0996 87.9078C29.5632 87.2836 32.0488 86.6594 34.5124 86.0352C34.5784 86.1501 34.6664 86.2487 34.7324 86.3637C34.4904 86.5115 34.2924 86.7251 34.0285 86.7744C31.7408 87.2179 29.4532 87.645 27.1656 88.0721C27.1436 88.0228 27.1216 87.9735 27.0996 87.9078Z" fill="#CC312B"/>
<path d="M15.3314 82.2078C14.4516 81.5178 13.5717 80.8443 12.7139 80.1544C12.8458 80.0723 12.9558 79.9737 13.0878 79.8916C13.9017 80.6144 14.7375 81.3371 15.5514 82.0599C15.4854 82.1092 15.4194 82.1585 15.3314 82.2078Z" fill="#CC312B"/>
<path d="M35.5681 84.459C34.4902 84.804 33.4344 85.149 32.3566 85.4939C32.3126 85.4282 32.2686 85.3625 32.2246 85.2968C33.2584 84.9026 34.2703 84.4919 35.3041 84.0977C35.3921 84.2291 35.4801 84.3441 35.5681 84.459Z" fill="#CC312B"/>
<path d="M10.5802 85.5917C9.4144 85.1974 8.2266 84.8196 7.06079 84.4254C7.12678 84.3268 7.19277 84.2118 7.28075 84.1133C8.42457 84.5568 9.54638 85.0003 10.6902 85.4438C10.6462 85.5095 10.6242 85.5588 10.5802 85.5917Z" fill="#CC312B"/>
<path d="M29.805 80.1544C29.1011 80.7129 28.3972 81.2714 27.6934 81.8464C27.6274 81.7971 27.5394 81.7642 27.4734 81.715C28.1113 81.1072 28.7712 80.4994 29.4091 79.8916C29.541 79.9737 29.673 80.0559 29.805 80.1544Z" fill="#CC312B"/>
<path d="M4.09124 31.5893C4.22322 31.5565 4.28921 31.54 4.3552 31.54C7.56667 31.885 7.56667 31.885 7.56667 34.3161C7.56667 37.2072 7.56667 40.1147 7.56667 42.9073C7.76463 43.0387 7.83062 43.1044 7.87462 43.1044C9.67832 43.2522 9.67832 43.2522 9.94228 44.5992C10.5142 47.5889 12.0539 48.8537 16.4752 49.8886C16.0793 49.9543 15.8593 50.02 15.6393 50.02C14.5835 50.0036 13.5277 49.9872 12.4499 49.9707C9.74431 49.905 7.87462 48.9523 6.92877 47.0468C6.64282 46.4883 6.33487 46.0776 5.43302 45.8969C4.46518 45.7162 3.93726 45.0592 3.93726 44.3364C3.89327 40.2133 3.91527 36.0738 3.93726 31.9507C3.98126 31.8193 4.04725 31.7043 4.09124 31.5893Z" fill="white"/>
<path d="M12.1419 53.9299C12.3619 53.9135 12.5378 53.8806 12.7138 53.8971C13.2637 53.9135 13.7916 53.9299 14.2316 53.9463C14.2316 55.6054 14.2756 57.2152 14.2096 58.8086C14.1656 60.0899 14.0116 61.3712 13.9456 62.6525C13.8796 63.9009 13.8136 65.1657 15.3314 66.1185C13.8356 66.0528 12.6918 65.445 12.2959 64.4594C12.0979 63.9666 11.9879 63.4409 11.9879 62.9317C11.9659 60.1228 12.0099 57.2974 12.0319 54.4884C12.0319 54.3241 12.0979 54.1435 12.1419 53.9299Z" fill="#1D1C44"/>
<path d="M19.8187 75.1855C18.4329 75.0541 17.1792 74.3149 17.1352 73.2965C17.0252 71.0132 17.0912 68.7299 17.0912 66.3809C17.7071 66.3809 18.301 66.3809 18.9829 66.3809C19.5768 69.2719 18.4109 72.2945 19.8187 75.1855Z" fill="#1D1C44"/>
<path d="M20.8745 86.734C20.5886 85.5348 20.1266 84.3521 20.0386 83.153C19.9067 81.3296 19.9947 79.4898 20.0166 77.6501C20.0166 77.4201 20.3466 77.2065 20.5006 76.9766C20.6985 77.2065 21.0725 77.4365 21.0725 77.6665C21.1165 80.6726 21.0945 83.6786 21.0945 86.6847C21.0285 86.7011 20.9625 86.7176 20.8745 86.734Z" fill="#1D1C44"/>
<path d="M19.2249 51.1532C18.499 51.2682 18.191 51.1039 18.169 50.5454C18.147 49.9705 18.565 49.8719 19.2029 49.8884C19.7748 49.9048 20.2807 49.8884 20.2807 50.5126C20.2807 51.1039 19.9288 51.2846 19.2249 51.1532Z" fill="white"/>
</g>
<g clip-path="url(#clip1_174_121)">
<path d="M30.046 25.3002C33.0257 25.9074 32.8033 25.5194 32.8033 27.8639C32.8033 31.018 32.8033 34.1552 32.7589 37.3093C32.7366 39.5357 31.3802 40.9694 28.5784 41.644C27.9113 41.8127 27.7334 42.0488 27.7334 42.538C27.7557 43.9716 27.7557 45.4053 27.7557 46.839C27.7334 48.7955 26.5104 50.1448 24.1311 50.8533C23.5308 51.0219 23.3751 51.2749 23.3751 51.7303C23.3973 52.9447 23.2862 54.1591 23.3751 55.3567C23.5308 57.4987 22.9971 59.5396 22.1076 61.5468C21.8853 62.019 21.7296 62.5082 21.4405 63.2334C21.107 62.4238 20.9069 61.8335 20.64 61.2431C19.6839 59.2023 19.3948 57.0939 19.506 54.935C19.5727 53.8387 19.5505 52.7423 19.506 51.646C19.506 51.4099 19.2614 51.0388 18.9945 50.9713C16.1483 50.128 14.992 48.5256 15.0809 46.2824C15.1477 44.7981 15.1032 43.3138 15.1032 41.8464C11.2785 40.885 10.1222 39.7044 10.1 36.7021C10.0778 33.5311 10.0555 30.3433 10.0778 27.1724C10.0778 25.7893 10.1 25.7893 11.8789 25.452C12.0568 25.4182 12.2125 25.3676 12.5905 25.2664C12.2125 25.1821 12.0346 25.1146 11.8567 25.0978C9.01042 24.8448 6.83126 23.8328 5.54155 21.8594C5.23024 21.3871 4.85222 21.151 4.1629 21.0498C1.49453 20.6281 0.00469736 19.245 0.00469736 17.1704C-0.0397754 12.5658 0.00469736 7.94433 -0.0620117 3.33971C-0.0620117 2.73251 0.271534 2.42891 0.938624 2.31084C3.22897 1.88917 5.51931 1.34944 7.85413 1.13017C17.4158 0.32057 27.0441 0.286837 36.628 1.33257C38.4069 1.53497 40.1413 1.97351 41.898 2.32771C42.6096 2.47951 42.8986 2.79998 42.8986 3.44091C42.8542 8.02866 42.8986 12.5995 42.8542 17.1873C42.8319 19.3631 41.3643 20.6618 38.5625 21.1847C38.1845 21.2522 37.6731 21.4377 37.5397 21.6738C36.161 23.8834 33.7817 24.9122 30.7131 25.2158C30.5797 25.2327 30.4463 25.2496 30.046 25.3002ZM4.05171 4.77338C4.00724 4.87458 3.9183 5.00952 3.9183 5.14445C3.9183 9.378 3.89606 13.6284 3.9183 17.862C3.9183 18.6041 4.45197 19.2788 5.43037 19.4643C6.34206 19.633 6.65337 20.0715 6.94244 20.645C7.8986 22.6015 9.7887 23.5798 12.5238 23.6472C13.5911 23.6641 14.6585 23.6978 15.748 23.6978C15.9704 23.6978 16.1705 23.6304 16.593 23.5629C12.1457 22.5003 10.5892 21.1847 9.98882 18.1318C9.72199 16.7488 9.72199 16.7488 7.89861 16.597C7.8319 16.597 7.78742 16.5295 7.5873 16.3946C7.5873 13.5103 7.5873 10.5418 7.5873 7.57326C7.5873 5.07698 7.5873 5.07698 4.34079 4.72278C4.25184 4.72278 4.18513 4.75652 4.05171 4.77338ZM12.1902 27.7121C12.1457 27.9314 12.079 28.1169 12.079 28.3025C12.0568 31.1867 12.0346 34.0877 12.0346 36.9719C12.0346 37.4948 12.1458 38.0345 12.3459 38.5405C12.7461 39.5526 13.9024 40.1766 15.4145 40.2441C13.8579 39.249 13.9247 37.9671 14.0136 36.6852C14.0803 35.3696 14.236 34.054 14.2804 32.7384C14.3249 31.0855 14.3027 29.4494 14.3027 27.7459C13.8802 27.729 13.3243 27.6953 12.7684 27.6953C12.5905 27.6615 12.4126 27.6953 12.1902 27.7121ZM19.9507 49.5376C18.5276 46.5691 19.7061 43.4656 19.1057 40.4971C18.4164 40.4971 17.816 40.4971 17.1934 40.4971C17.1934 42.8922 17.1045 45.2535 17.2379 47.598C17.2823 48.6606 18.5498 49.4027 19.9507 49.5376ZM21.0181 61.3949C21.107 61.3781 21.1959 61.3612 21.2627 61.3444C21.2627 58.2577 21.2849 55.1711 21.2404 52.0845C21.2404 51.8484 20.8624 51.6123 20.6623 51.3761C20.4844 51.6123 20.1731 51.8315 20.1731 52.0677C20.1286 53.9567 20.0397 55.8458 20.1953 57.718C20.262 58.9661 20.729 60.1805 21.0181 61.3949ZM19.3503 24.8616C20.0397 24.9797 20.4177 24.7942 20.4177 24.187C20.4177 23.546 19.9062 23.5629 19.3281 23.546C18.7055 23.5292 18.283 23.6304 18.283 24.2207C18.3052 24.811 18.6165 24.9966 19.3503 24.8616Z" fill="white"/>
<path d="M4.05169 4.77326C4.18511 4.73952 4.25182 4.72266 4.31853 4.72266C7.56504 5.07686 7.56504 5.07686 7.56504 7.57313C7.56504 10.5417 7.56504 13.5271 7.56504 16.3944C7.76516 16.5294 7.83187 16.5968 7.87635 16.5968C9.69973 16.7486 9.69973 16.7486 9.96656 18.1317C10.5447 21.2014 12.1013 22.5002 16.5708 23.5628C16.1705 23.6302 15.9481 23.6977 15.7258 23.6977C14.6584 23.6808 13.5911 23.664 12.5015 23.6471C9.76644 23.5796 7.87635 22.6014 6.92018 20.6448C6.63111 20.0714 6.3198 19.6497 5.40811 19.4642C4.42971 19.2786 3.89604 18.604 3.89604 17.8618C3.85156 13.6283 3.8738 9.37787 3.89604 5.14432C3.94051 5.00939 4.00722 4.89132 4.05169 4.77326Z" fill="white"/>
<path d="M12.1903 27.7122C12.4126 27.6953 12.5905 27.6616 12.7684 27.6784C13.3243 27.6953 13.858 27.7122 14.3027 27.729C14.3027 29.4326 14.3472 31.0855 14.2805 32.7216C14.236 34.0372 14.0804 35.3528 14.0137 36.6684C13.947 37.9503 13.8802 39.249 15.4146 40.2273C13.9025 40.1598 12.7462 39.5357 12.3459 38.5237C12.1458 38.0177 12.0346 37.478 12.0346 36.9551C12.0124 34.0709 12.0569 31.1698 12.0791 28.2856C12.0791 28.117 12.1458 27.9314 12.1903 27.7122Z" fill="white"/>
<path d="M19.3504 24.862C18.6166 24.98 18.3053 24.8114 18.2831 24.2379C18.2608 23.6475 18.6833 23.5463 19.3282 23.5632C19.9063 23.5801 20.4178 23.5632 20.4178 24.2041C20.4178 24.8114 20.062 24.9969 19.3504 24.862Z" fill="white"/>
</g>
<path d="M3.95532 6.07715H38.5046V46.4992C38.5046 48.4322 36.9376 49.9992 35.0046 49.9992H7.45533C5.52233 49.9992 3.95532 48.4322 3.95532 46.4992V6.07715Z" fill="#CC312B" stroke="white" stroke-width="3"/>
<path d="M16.3109 26.8248H6.90146C6.44948 26.8248 6.1413 26.3951 6.22348 25.8642L6.61383 23.1847C6.69601 22.6539 7.12745 22.1989 7.57944 22.1989H16.5986C16.8657 22.1989 17.1327 21.9461 17.1738 21.6175L17.2971 20.7833C17.3382 20.4547 17.1533 20.1766 16.8862 20.1766H10.4146C8.2985 20.1766 6.90146 18.1291 7.27126 15.576L7.53835 13.7812C7.90815 11.2281 9.92153 9.15527 12.0171 9.15527H21.6115C22.0635 9.15527 22.3716 9.585 22.2895 10.1411L21.9197 12.669C21.8375 13.2251 21.406 13.6548 20.9541 13.6548H12.1815C11.9144 13.6548 11.6473 13.9329 11.6062 14.2615L11.4418 15.3737C11.4008 15.7024 11.5651 15.9551 11.8322 15.9551H18.3243C20.4404 15.9551 21.8375 18.028 21.4677 20.5811L21.2211 22.2241C20.8513 24.7773 18.8379 26.8501 16.7424 26.8501H16.3109V26.8248Z" fill="white"/>
<path d="M30.857 25.0578H22.3885C21.9817 25.0578 21.7043 24.6711 21.7783 24.1933L22.1296 21.7818C22.2036 21.304 22.5919 20.8945 22.9987 20.8945H31.1159C31.3563 20.8945 31.5966 20.667 31.6336 20.3712L31.7446 19.6205C31.7815 19.3247 31.6151 19.0745 31.3748 19.0745H25.5503C23.6458 19.0745 22.3885 17.2317 22.7213 14.9339L22.9617 13.3186C23.2945 11.0208 25.1066 9.15527 26.9926 9.15527H35.6275C36.0343 9.15527 36.3117 9.54203 36.2377 10.0425L35.9049 12.3176C35.8309 12.8181 35.4426 13.2049 35.0358 13.2049H27.1405C26.9001 13.2049 26.6597 13.4551 26.6228 13.7509L26.4748 14.7519C26.4379 15.0476 26.5858 15.2751 26.8261 15.2751H32.6691C34.5736 15.2751 35.8309 17.1407 35.4981 19.4385L35.2762 20.9173C34.9434 23.2151 33.1313 25.0806 31.2453 25.0806H30.857V25.0578Z" fill="white"/>
<path d="M13.1144 28.6191H16.1618C16.6697 28.6191 17.016 29.0782 16.9236 29.6722L14.3149 46.4675C14.2225 47.0346 13.7608 47.4936 13.2529 47.4936H10.2055C9.69758 47.4936 9.35129 47.0346 9.44363 46.4675L12.0524 29.6722C12.1447 29.0782 12.6065 28.6191 13.1144 28.6191Z" fill="white"/>
<path d="M17.7611 47.4935C17.2232 47.4935 16.8565 46.9915 16.9543 46.3713L19.7169 28.0014C19.8147 27.3517 20.3036 26.8496 20.8415 26.8496H35.2411C35.559 26.8496 35.7545 27.1449 35.7056 27.5289L35.1189 31.4273C35.07 31.8112 34.7522 32.1066 34.4344 32.1066H24.4353C24.3375 32.1066 24.2397 32.2247 24.2152 32.3428L23.8974 34.4693C23.873 34.5874 23.9463 34.7055 24.0686 34.7055H32.1118C32.4297 34.7055 32.6252 35.0009 32.5763 35.3848L32.0385 38.9584C31.9896 39.3423 31.6718 39.6376 31.354 39.6376H23.3107C23.2129 39.6376 23.1151 39.7558 23.0906 39.8739L22.1127 46.3713C22.0149 46.9915 21.526 47.4935 20.9881 47.4935H17.7611Z" fill="white"/>
<defs>
<clipPath id="clip0_174_121">
<rect width="42.519" height="62.372" fill="white" transform="translate(0 27.4668)"/>
</clipPath>
<clipPath id="clip1_174_121">
<rect width="42.519" height="50.9276" fill="white"/>
</clipPath>
</defs>
</svg>
